<svg width="16" height="16" viewBox="0 0 16 16" fill="none" xmlns="http://www.w3.org/2000/svg">
<path d="M0.861266 10.3328C3.78537 10.3328 6.18841 12.7154 6.18841 15.66C6.18841 15.8602 6.34876 16.0002 6.52868 16.0002C6.72893 16.0002 6.86895 15.8399 6.86895 15.66C6.86895 12.7359 9.25156 10.3328 12.1961 10.3328C12.3963 10.3328 12.5364 10.1725 12.5364 9.99254C12.5364 9.81263 12.376 9.65227 12.1961 9.65227C9.27199 9.65227 6.86895 7.26966 6.86895 4.32513C6.86895 4.12488 6.70859 3.98486 6.52868 3.98486C6.32842 3.98486 6.18841 4.14522 6.18841 4.32513C6.18841 7.24923 3.80579 9.65227 0.861266 9.65227C0.661013 9.65227 0.520996 9.81263 0.520996 9.99254C0.520996 10.1725 0.681355 10.3328 0.861266 10.3328ZM6.52864 6.32775C7.1294 8.0299 8.47093 9.3714 10.173 9.97216C8.47089 10.5729 7.1294 11.9145 6.52864 13.6166C5.92788 11.9144 4.58634 10.5729 2.88423 9.97216C4.58638 9.3714 5.92788 8.02986 6.52864 6.32775Z" fill="#04724D"/>
<path d="M9.77219 3.6241C11.2139 3.6241 12.3755 4.78573 12.3755 6.2274C12.3755 6.42765 12.5358 6.56767 12.7158 6.56767C12.8957 6.56767 13.056 6.40731 13.056 6.2274C13.056 4.78573 14.2177 3.6241 15.6593 3.6241C15.8596 3.6241 15.9996 3.46375 15.9996 3.28383C15.9996 3.08358 15.8392 2.94356 15.6593 2.94356C14.2177 2.94356 13.056 1.78193 13.056 0.34027C13.056 0.140017 12.8957 0 12.7158 0C12.5358 0 12.3755 0.160359 12.3755 0.34027C12.3755 1.78193 11.2139 2.94356 9.77219 2.94356C9.57194 2.94356 9.43192 3.10392 9.43192 3.28383C9.41158 3.48409 9.57194 3.6241 9.77219 3.6241ZM12.7157 1.80226C13.0364 2.44291 13.5566 2.96389 14.1973 3.28381C13.5566 3.60454 13.0356 4.12472 12.7157 4.76537C12.395 4.12472 11.8748 3.60374 11.2342 3.28381C11.8748 2.96309 12.3958 2.44291 12.7157 1.80226Z" fill="#04724D"/>
<path d="M1.48236 4.50608H2.34361V5.36733C2.34361 5.56759 2.50397 5.7076 2.68388 5.7076C2.8638 5.7076 3.02415 5.54725 3.02415 5.36733V4.50608H3.8854C4.08566 4.50608 4.22567 4.34573 4.22567 4.16581C4.22567 3.9859 4.06531 3.82554 3.8854 3.82554H3.02415V2.96429C3.02415 2.76404 2.86379 2.62402 2.68388 2.62402C2.50397 2.62402 2.34361 2.78438 2.34361 2.96429V3.82554H1.48236C1.28211 3.82554 1.14209 3.9859 1.14209 4.16581C1.14131 4.34573 1.28211 4.50608 1.48236 4.50608Z" fill="#04724D"/>
<path d="M2.68388 15.9991C2.88413 15.9991 3.02415 15.8387 3.02415 15.6588V14.7976H3.8854C4.08565 14.7976 4.22567 14.6372 4.22567 14.4573C4.22567 14.2774 4.06531 14.117 3.8854 14.117H3.02415V13.2558C3.02415 13.0555 2.86379 12.9155 2.68388 12.9155C2.50396 12.9155 2.34361 13.0759 2.34361 13.2558V14.117H1.48236C1.28211 14.117 1.14209 14.2774 1.14209 14.4573C1.14209 14.6372 1.30245 14.7976 1.48236 14.7976H2.34361V15.6588C2.34283 15.8388 2.50319 15.9991 2.68388 15.9991Z" fill="#04724D"/>
</svg>
